<?xml version="1.0" encoding="utf-8"?>
<!-- Generator: Adobe Illustrator 26.0.0, SVG Export Plug-In . SVG Version: 6.00 Build 0)  -->
<svg version="1.1" id="图层_1" xmlns="http://www.w3.org/2000/svg" xmlns:xlink="http://www.w3.org/1999/xlink" x="0px" y="0px"
	 viewBox="0 0 274.5 91" style="enable-background:new 0 0 274.5 91;" xml:space="preserve">
<style type="text/css">
	.st0{fill:none;stroke:#000000;stroke-width:0.6;stroke-miterlimit:10;}
	.st1{font-family:'SourceHanSerifCN-Regular-GBpc-EUC-H';}
	.st2{font-size:9px;}
	.st3{font-family:'SourceHanSansCN-ExtraLight-GBpc-EUC-H';}
	.st4{font-size:26.8093px;}
</style>
<g>
	<g>
		<line class="st0" x1="5.5" y1="3.9" x2="268.9" y2="3.9"/>
		<line class="st0" x1="5.5" y1="87.1" x2="268.9" y2="87.1"/>
	</g>
	<text transform="matrix(1 0 0 1 8.5491 31.9007)" class="st1 st2">字面</text>
	<text transform="matrix(1 0 0 1 41.5332 22.8849)" class="st1 st2">形</text>
	<text transform="matrix(1 0 0 1 41.5332 42.42)" class="st1 st2">大小</text>
	<text transform="matrix(1 0 0 1 169.2114 60.4078)" class="st1 st2">=H(%)×W(%)…</text>
	<text transform="matrix(1 0 0 1 248.8609 60.8353)" class="st1 st2">左页</text>
	<text transform="matrix(1 0 0 1 224.7143 31.0623)" class="st1 st2">p.15表516</text>
	<text transform="matrix(1 0 0 1 75.7436 46.291)" class="st1 st2">量化的面积</text>
	<text transform="matrix(1 0 0 1 75.7436 16.719)"><tspan x="0" y="0" class="st1 st2">感觉上的</tspan><tspan x="0" y="10.8" class="st1 st2">大小</tspan></text>
	<g>
		<text transform="matrix(1 0 0 1 133.2638 22.8848)" class="st1 st2">轮廓的面积……B</text>
		<text transform="matrix(1 0 0 1 144.4896 40.4998)" class="st1 st2">H×W……A</text>
	</g>
	<text transform="matrix(1 0 0 1 144.9665 81.1703)" class="st1 st2">字面率……比率</text>
	<g>
		<text transform="matrix(1 0 0 1 144.9664 53.4805)" class="st1 st2">H·W</text>
		<text transform="matrix(1 0 0 1 152.2204 68.1902)" class="st1 st2">S</text>
		<line class="st0" x1="145.4" y1="57.3" x2="164.5" y2="57.3"/>
	</g>
	<g>
		<polyline class="st0" points="39.7,19.2 35,19.2 35,38.8 39.7,38.8 		"/>
		<line class="st0" x1="35" y1="29" x2="30.4" y2="29"/>
	</g>
	<g>
		<polyline class="st0" points="71.8,19.2 67.2,19.2 67.2,43.1 71.8,43.1 		"/>
		<line class="st0" x1="67.2" y1="38.8" x2="62.5" y2="38.8"/>
	</g>
	<g>
		<polyline class="st0" points="132.7,19.2 128,19.2 128,51.2 138.6,51.2 		"/>
		<polyline class="st0" points="143.2,40.6 138.6,40.6 138.6,57.3 143.2,57.3 		"/>
		<line class="st0" x1="128" y1="42.8" x2="123.4" y2="42.8"/>
	</g>
	<text transform="matrix(1 0 0 1 210.954 37.8036)" class="st3 st4">}</text>
</g>
</svg>
